<svg width="32" height="32" viewBox="0 0 32 32" fill="none" xmlns="http://www.w3.org/2000/svg">
<g clip-path="url(#clip0_272_371)">
<path d="M29.3334 9.33325H17.1587C16.5654 7.03392 14.4841 5.33325 12.0001 5.33325C9.51608 5.33325 7.43475 7.03392 6.84141 9.33325H2.66675V11.9999H6.84141C7.43408 14.2993 9.51541 15.9999 12.0001 15.9999C14.4847 15.9999 16.5654 14.2993 17.1587 11.9999H29.3334V9.33325ZM12.0001 13.3333C10.5294 13.3333 9.33341 12.1373 9.33341 10.6666C9.33341 9.19592 10.5294 7.99992 12.0001 7.99992C13.4707 7.99992 14.6667 9.19592 14.6667 10.6666C14.6667 12.1373 13.4707 13.3333 12.0001 13.3333Z" fill="#12DEF4"/>
<path d="M29.3334 20H25.1587C24.5661 17.7007 22.4847 16 20.0001 16C17.5154 16 15.4347 17.7007 14.8414 20H2.66675V22.6667H14.8414C15.4341 24.966 17.5154 26.6667 20.0001 26.6667C22.4847 26.6667 24.5654 24.966 25.1587 22.6667H29.3334V20ZM20.0001 24C18.5294 24 17.3334 22.804 17.3334 21.3333C17.3334 19.8627 18.5294 18.6667 20.0001 18.6667C21.4707 18.6667 22.6667 19.8627 22.6667 21.3333C22.6667 22.804 21.4707 24 20.0001 24Z" fill="#12DEF4"/>
</g>
<defs>
<clipPath id="clip0_272_371">
<rect width="32" height="32" fill="white"/>
</clipPath>
</defs>
</svg>
