<svg width="32" height="32" viewBox="0 0 32 32" fill="none" xmlns="http://www.w3.org/2000/svg">
<path d="M27.8267 23L24.2134 16.76C24.9528 15.402 25.338 13.8796 25.3334 12.3333C25.3334 9.85798 24.3501 7.48401 22.5997 5.73367C20.8494 3.98333 18.4754 3 16.0001 3C13.5247 3 11.1507 3.98333 9.40039 5.73367C7.65005 7.48401 6.66672 9.85798 6.66672 12.3333C6.66213 13.8796 7.04733 15.402 7.78672 16.76L4.17339 23C4.05614 23.2031 3.99452 23.4335 3.99475 23.668C3.99498 23.9025 4.05706 24.1328 4.17471 24.3356C4.29236 24.5385 4.46143 24.7067 4.66486 24.8234C4.8683 24.94 5.09889 25.0009 5.33339 25H9.16006L11.1067 28.28C11.1723 28.3887 11.2532 28.4875 11.3467 28.5733C11.5939 28.8116 11.9234 28.9453 12.2667 28.9467H12.4534C12.6547 28.9191 12.847 28.8459 13.0157 28.7327C13.1844 28.6195 13.325 28.4692 13.4267 28.2933L16.0001 23.8667L18.5734 28.3333C18.6766 28.5067 18.8179 28.6544 18.9865 28.7652C19.1551 28.8761 19.3466 28.9473 19.5467 28.9733H19.7334C20.0813 28.9754 20.4162 28.8414 20.6667 28.6C20.7564 28.519 20.8329 28.4246 20.8934 28.32L22.8401 25.04H26.6667C26.9017 25.0409 27.1327 24.9798 27.3364 24.8627C27.5401 24.7456 27.7092 24.5768 27.8267 24.3733C27.9513 24.166 28.0171 23.9286 28.0171 23.6867C28.0171 23.4447 27.9513 23.2074 27.8267 23ZM12.2534 25.04L11.0667 23.0533C10.9499 22.8562 10.7842 22.6926 10.5857 22.5781C10.3872 22.4637 10.1625 22.4023 9.93339 22.4H7.62672L9.53339 19.0933C10.8464 20.3585 12.5011 21.2114 14.2934 21.5467L12.2534 25.04ZM16.0001 19C14.6815 19 13.3926 18.609 12.2963 17.8765C11.1999 17.1439 10.3454 16.1027 9.84086 14.8846C9.33628 13.6664 9.20425 12.3259 9.46149 11.0327C9.71872 9.73952 10.3537 8.55164 11.286 7.61929C12.2184 6.68694 13.4062 6.052 14.6995 5.79476C15.9927 5.53753 17.3331 5.66955 18.5513 6.17414C19.7695 6.67872 20.8106 7.5332 21.5432 8.62953C22.2757 9.72586 22.6667 11.0148 22.6667 12.3333C22.6667 14.1014 21.9643 15.7971 20.7141 17.0474C19.4639 18.2976 17.7682 19 16.0001 19ZM22.0667 22.4C21.8376 22.4023 21.6129 22.4637 21.4144 22.5781C21.2159 22.6926 21.0502 22.8562 20.9334 23.0533L19.7467 25.04L17.7201 21.5067C19.506 21.1645 21.1547 20.3124 22.4667 19.0533L24.3734 22.36L22.0667 22.4Z" fill="#12DEF4"/>
</svg>
