<svg width="64" height="64" viewBox="0 0 64 64" fill="none" xmlns="http://www.w3.org/2000/svg">
<path d="M32 42.9999C31.8362 43.0011 31.6777 42.9419 31.5547 42.8337C31.4318 42.7255 31.353 42.5759 31.3333 42.4132V10.5866C31.3333 10.4098 31.4036 10.2402 31.5286 10.1152C31.6536 9.99016 31.8232 9.91992 32 9.91992C32.1768 9.91992 32.3464 9.99016 32.4714 10.1152C32.5964 10.2402 32.6666 10.4098 32.6666 10.5866V42.4132C32.647 42.5759 32.5682 42.7255 32.4452 42.8337C32.3223 42.9419 32.1638 43.0011 32 42.9999Z" fill="#12DEF4"/>
<path d="M31.4334 34.3399L30.5267 33.9999C29.1189 33.4951 27.745 32.9006 26.4133 32.2199C23.6133 30.7399 20.92 25.8532 20.8067 25.6466L20.08 24.3132L21.54 23.9999C21.6867 23.9599 25.22 23.1132 29.5867 25.9132C33.6467 28.5132 32.6467 32.2999 31.92 33.5332L31.4334 34.3399ZM22.1 25.2199C22.6267 26.1399 24.8934 29.8866 27.0534 31.0532C28.2842 31.6785 29.5508 32.2306 30.8467 32.7066C31.1533 32.0399 32.28 29.1866 28.8467 27.0066C25.4133 24.8266 22.86 25.0932 22.0867 25.2199H22.1Z" fill="#12DEF4"/>
<path d="M32.3133 34.34L31.8266 33.5067C31.0933 32.28 30.08 28.5 34.16 25.8867C38.4533 23.1334 41.8333 23.8867 42.2066 23.9734L43.6666 24.34L42.94 25.6734C42.8266 25.88 40.1333 30.7667 37.3333 32.2467C36.0025 32.9165 34.6309 33.5021 33.2266 34L32.3133 34.34ZM40.6666 25.1467C38.6055 25.1993 36.6033 25.8451 34.9 27.0067C31.5066 29.1867 32.62 32.06 32.9 32.7067C34.1963 32.2319 35.4631 31.6798 36.6933 31.0534C38.8533 29.9134 41.12 26.1334 41.6466 25.22C41.3223 25.1707 40.9947 25.1462 40.6666 25.1467Z" fill="#12DEF4"/>
<path d="M31.5667 23.4999L30.7333 23.2066C29.5828 22.7854 28.4586 22.2956 27.3667 21.7399C25.1 20.5466 22.98 16.7666 22.7467 16.3399L22.08 15.1266L23.4134 14.7866C23.54 14.7533 26.46 14.0466 30.08 16.3599C33.4733 18.5333 32.6334 21.6933 32.0267 22.7333L31.5667 23.4999ZM24.1 15.9999C24.9067 17.3999 26.54 19.7799 27.9934 20.5399C28.9554 21.0466 29.9485 21.4919 30.9667 21.8733C31.2667 21.2066 31.9134 19.1266 29.3533 17.4866C27.8268 16.3985 25.9703 15.8732 24.1 15.9999Z" fill="#12DEF4"/>
<path d="M32.18 23.4999L31.7267 22.7333C31.1133 21.7066 30.26 18.5466 33.6733 16.3599C37.2067 14.0933 40.0133 14.7066 40.34 14.7866L41.6733 15.1266L41.0067 16.3399C40.7733 16.7666 38.6533 20.5466 36.3867 21.7399C35.3058 22.2948 34.1927 22.7846 33.0533 23.2066L32.18 23.4999ZM39.02 15.9999C37.3663 16.0427 35.76 16.5612 34.3933 17.4933C31.84 19.1333 32.48 21.2066 32.7867 21.8799C33.8016 21.4958 34.7923 21.0505 35.7533 20.5466C37.2067 19.7866 38.84 17.4066 39.6467 16.0066C39.4381 15.9916 39.2288 15.9894 39.02 15.9999Z" fill="#12DEF4"/>
<path d="M31.5667 13.5132L30.7333 13.2132C29.5823 12.7959 28.458 12.3083 27.3667 11.7532C25.1 10.5599 22.98 6.7799 22.7467 6.35323L22.08 5.1399L23.4134 4.7999C23.54 4.7999 26.46 4.0599 30.08 6.37323C33.4733 8.54657 32.6334 11.7066 32.0267 12.7466L31.5667 13.5132ZM24.1 6.03323C24.9067 7.43323 26.54 9.81323 27.9934 10.5732C28.9554 11.0799 29.9485 11.5252 30.9667 11.9066C31.2667 11.2399 31.9134 9.1599 29.3533 7.5199C27.8283 6.42881 25.9707 5.90312 24.1 6.03323Z" fill="#12DEF4"/>
<path d="M32.18 13.5134L31.7267 12.7467C31.1133 11.72 30.26 8.56004 33.6733 6.37337C37.2067 4.10671 40.0133 4.72004 40.34 4.80004L41.6733 5.14004L41.0067 6.35337C40.7733 6.78004 38.6533 10.56 36.3867 11.7534C35.3063 12.3075 34.1932 12.795 33.0533 13.2134L32.18 13.5134ZM39.02 6.00004C37.3658 6.04594 35.7598 6.56663 34.3933 7.50004C31.84 9.14004 32.48 11.2134 32.7867 11.8867C33.8003 11.4996 34.7909 11.0544 35.7533 10.5534C37.2067 9.79337 38.84 7.41337 39.6467 6.01337C39.4383 5.99563 39.229 5.99118 39.02 6.00004Z" fill="#12DEF4"/>
<path d="M46 61.3334H34.6666V58.0001C34.6666 57.6334 33.9666 47.6801 41.4733 42.1267C42.4171 41.452 43.2825 40.6738 44.0533 39.8067L52.68 29.8067C53.1933 29.2087 53.9019 28.8119 54.68 28.6867V13.3334C54.679 12.4764 55.0081 11.6519 55.5991 11.0312C56.19 10.4105 56.9973 10.0412 57.8533 10.0001C58.2929 9.98116 58.7317 10.0518 59.1431 10.2076C59.5545 10.3635 59.93 10.6013 60.2466 10.9067C60.5918 11.2417 60.8659 11.6428 61.0526 12.0861C61.2393 12.5294 61.3348 13.0058 61.3333 13.4867V33.4867C61.3346 34.4465 61.4082 35.4047 61.5533 36.3534C61.8466 38.3534 61.9533 42.2067 59.3066 45.1534C55.64 49.2534 52.5333 52.4067 49.2466 55.7401L47.8 57.1934L46 58.3601V61.3334ZM36 60.0001H44.6666V57.6401L46.9866 56.1201L48.28 54.7867C51.5533 51.4534 54.6466 48.3201 58.28 44.2334C60.5666 41.6934 60.46 38.3134 60.2 36.5201C60.059 35.513 59.9921 34.4969 60 33.4801V13.4801C60.0027 13.1812 59.9451 12.8848 59.8306 12.6087C59.716 12.3326 59.5469 12.0825 59.3333 11.8734C59.1476 11.6929 58.9272 11.5519 58.6854 11.4591C58.4436 11.3663 58.1855 11.3235 57.9266 11.3334C57.409 11.3524 56.919 11.5715 56.5596 11.9445C56.2003 12.3175 55.9996 12.8154 56 13.3334V28.7734C56.4926 28.9039 56.9487 29.1457 57.3333 29.4801C57.6656 29.7627 57.9381 30.1087 58.135 30.4979C58.3319 30.8871 58.4492 31.3117 58.48 31.7467C58.48 31.8334 58.48 31.9134 58.48 32.0001C58.4795 32.8008 58.1908 33.5747 57.6666 34.1801L48.8533 44.4667C48.7358 44.594 48.5733 44.6706 48.4004 44.6802C48.2274 44.6898 48.0574 44.6317 47.9266 44.5181C47.7957 44.4046 47.7142 44.2446 47.6993 44.072C47.6843 43.8993 47.7372 43.7277 47.8466 43.5934L56.7333 33.3334C57.057 32.9657 57.2307 32.4898 57.22 32.0001V31.8667C57.1779 31.353 56.9391 30.8753 56.5533 30.5334C56.2233 30.2158 55.7906 30.0266 55.3333 30.0001H55.2C54.9181 29.9997 54.6394 30.0589 54.3821 30.1738C54.1247 30.2887 53.8945 30.4567 53.7066 30.6667L45.08 40.6667C44.2448 41.6073 43.308 42.4525 42.2866 43.1867C35.38 48.3067 36 57.8534 36 57.9467V60.0001Z" fill="#12DEF4" stroke="#12DEF4"/>
<path d="M29.6934 61.3332H18.36V58.3599L16.4734 57.0999L15.14 55.7666C11.8534 52.4332 8.74669 49.2799 5.06002 45.1732C2.39335 42.2266 2.51335 38.3932 2.81335 36.3732C2.95302 35.424 3.02431 34.466 3.02669 33.5066V13.5066C3.02638 13.0219 3.12429 12.5423 3.3145 12.0966C3.5047 11.6509 3.78326 11.2483 4.13335 10.9132C4.44847 10.6071 4.82255 10.3683 5.23284 10.2113C5.64313 10.0543 6.08106 9.98237 6.52002 9.99989C7.34675 10.0345 8.12999 10.3797 8.71335 10.9666C9.0247 11.2769 9.27157 11.6458 9.43976 12.052C9.60795 12.4582 9.69414 12.8936 9.69335 13.3332V28.7199C10.4715 28.8451 11.1801 29.2419 11.6934 29.8399L20.32 39.8399C21.0908 40.707 21.9562 41.4852 22.9 42.1599C30.4067 47.7132 29.7334 57.6666 29.7 58.0866L29.6934 61.3332ZM19.6934 59.9999H28.36V57.9999C28.36 57.8532 29.0267 48.3066 22.1 43.1999C21.0859 42.4616 20.1579 41.6119 19.3334 40.6666L10.6667 30.7066C10.478 30.4956 10.2468 30.3272 9.98823 30.2122C9.72966 30.0973 9.44964 30.0386 9.16669 30.0399H9.04669C8.60381 30.0591 8.18063 30.2284 7.84669 30.5199C7.46094 30.8618 7.22212 31.3395 7.18002 31.8532C7.18002 31.9066 7.18002 31.9532 7.18002 32.0066C7.16795 32.4922 7.33663 32.9649 7.65335 33.3332L16.54 43.5932C16.6495 43.7275 16.7023 43.8992 16.6874 44.0718C16.6725 44.2444 16.591 44.4044 16.4601 44.5179C16.3292 44.6315 16.1593 44.6896 15.9863 44.68C15.8133 44.6704 15.6509 44.5939 15.5334 44.4666L6.66669 34.1999C6.12834 33.5932 5.82969 32.811 5.82669 31.9999C5.82669 31.9132 5.82669 31.8332 5.82669 31.7466C5.89304 30.8669 6.30537 30.0494 6.97335 29.4732C7.36664 29.1278 7.83792 28.883 8.34669 28.7599V13.3332C8.34733 13.0695 8.29583 12.8083 8.19515 12.5646C8.09446 12.3209 7.94659 12.0996 7.76002 11.9132C7.40408 11.5595 6.92816 11.3524 6.42669 11.3332C6.16727 11.323 5.90852 11.3663 5.66653 11.4603C5.42454 11.5544 5.20448 11.6972 5.02002 11.8799C4.80677 12.0893 4.63784 12.3394 4.5233 12.6154C4.40877 12.8915 4.35097 13.1877 4.35335 13.4866V33.4866C4.35341 34.5108 4.27765 35.5335 4.12669 36.5466C3.86002 38.3399 3.76002 41.7199 6.04669 44.2599C9.71335 48.3466 12.8067 51.4866 16.08 54.8132L17.3734 56.1466L19.6867 57.6666L19.6934 59.9999Z" fill="#12DEF4" stroke="#12DEF4"/>
</svg>
