<svg width="64" height="64" viewBox="0 0 64 64" fill="none" xmlns="http://www.w3.org/2000/svg">
<path d="M31.9937 12.4751C22.2312 12.4751 14.3125 20.3876 14.3125 30.1563C14.3125 36.6438 17.8062 42.3188 23.0187 45.3938V51.0063C23.0187 51.0876 23.0187 51.1626 23.025 51.2439C23.0312 51.4439 23.0437 51.6438 23.0625 51.8438C23.4875 56.3938 27.35 59.9876 32.0062 59.9876C34.475 59.9876 36.7187 58.9751 38.35 57.3501C39.7875 55.9126 40.7438 53.9876 40.95 51.8563C40.9688 51.6563 40.9812 51.4563 40.9875 51.2563C40.9875 51.1751 40.9938 51.0876 40.9938 51.0063V45.3813L41.0312 45.3626C46.2125 42.2813 49.6875 36.6251 49.6875 30.1563C49.675 20.3876 41.7625 12.4751 31.9937 12.4751ZM38.2313 51.0063C38.2313 51.3688 38.2 51.7251 38.1375 52.0688C38.0688 52.4751 37.9563 52.8689 37.8063 53.2501C37.4938 54.0438 37.0187 54.7813 36.3937 55.4063C35.2125 56.5876 33.65 57.2376 31.9937 57.2376C30.3375 57.2376 28.775 56.5876 27.5938 55.4063C26.9688 54.7813 26.4875 54.0438 26.175 53.2439C26.025 52.8626 25.9188 52.4688 25.85 52.0626C25.7875 51.7188 25.7625 51.3626 25.7625 51.0063V50.4563H38.225V51.0063H38.2313ZM38.2313 49.4563H25.7687V46.4751H38.2313V49.4563ZM42.55 40.7126C42.0625 41.2001 41.5562 41.6438 41.0187 42.0501C40.1625 42.7001 39.2437 43.2563 38.2687 43.7063L38.2313 43.7251V43.7313H25.7687C24.8062 43.2876 23.9 42.7501 23.0562 42.1188C22.4875 41.6938 21.95 41.2251 21.4375 40.7126C20.0625 39.3376 18.9875 37.7438 18.2375 35.9688C17.4562 34.1313 17.0625 32.1751 17.0625 30.1563C17.0625 28.1376 17.4562 26.1876 18.2375 24.3438C18.9875 22.5688 20.0687 20.9688 21.4375 19.5938C22.8125 18.2188 24.4062 17.1438 26.1875 16.3938C28.025 15.6188 29.9812 15.2251 32 15.2251C34.0187 15.2251 35.975 15.6188 37.8125 16.3938C39.5875 17.1438 41.1875 18.2251 42.5625 19.5938C43.9375 20.9688 45.0125 22.5626 45.7625 24.3438C46.5375 26.1813 46.9375 28.1376 46.9375 30.1563C46.9375 32.1751 46.5438 34.1251 45.7625 35.9688C45 37.7438 43.925 39.3376 42.55 40.7126Z" fill="#12DEF4"/>
<path d="M31.9937 27.0188C29.5125 27.0188 27.4937 29.0375 27.4937 31.5188C27.4937 33.85 29.2812 35.775 31.5562 36V43.7313H32.4313V36C34.7063 35.7813 36.4938 33.8563 36.4938 31.5188C36.4938 29.0375 34.475 27.0188 31.9937 27.0188ZM31.9937 35.0188C30.0625 35.0188 28.4937 33.45 28.4937 31.5188C28.4937 29.5875 30.0625 28.0188 31.9937 28.0188C33.925 28.0188 35.4938 29.5875 35.4938 31.5188C35.4938 33.45 33.925 35.0188 31.9937 35.0188Z" fill="#12DEF4"/>
<path d="M29.5375 6.47495C29.5375 7.12805 29.7969 7.75439 30.2587 8.2162C30.7206 8.67801 31.3469 8.93745 32 8.93745C32.6531 8.93745 33.2794 8.67801 33.7412 8.2162C34.2031 7.75439 34.4625 7.12805 34.4625 6.47495C34.4625 5.82186 34.2031 5.19551 33.7412 4.7337C33.2794 4.27189 32.6531 4.01245 32 4.01245C31.3469 4.01245 30.7206 4.27189 30.2587 4.7337C29.7969 5.19551 29.5375 5.82186 29.5375 6.47495Z" fill="#12DEF4"/>
<path d="M12.8 13.4063C12.8 13.7297 12.8637 14.0499 12.9874 14.3487C13.1112 14.6475 13.2926 14.9189 13.5212 15.1476C13.7499 15.3763 14.0214 15.5576 14.3201 15.6814C14.6189 15.8052 14.9391 15.8688 15.2625 15.8688C15.5859 15.8688 15.9061 15.8052 16.2049 15.6814C16.5036 15.5576 16.7751 15.3763 17.0037 15.1476C17.2324 14.9189 17.4138 14.6475 17.5376 14.3487C17.6613 14.0499 17.725 13.7297 17.725 13.4063C17.725 12.7533 17.4656 12.1269 17.0037 11.6651C16.5419 11.2033 15.9156 10.9438 15.2625 10.9438C14.6094 10.9438 13.9831 11.2033 13.5212 11.6651C13.0594 12.1269 12.8 12.7533 12.8 13.4063Z" fill="#12DEF4"/>
<path d="M5.86875 30.1376C5.86875 30.4609 5.93245 30.7811 6.0562 31.0799C6.17995 31.3787 6.36134 31.6501 6.59 31.8788C6.81867 32.1075 7.09013 32.2888 7.38889 32.4126C7.68766 32.5364 8.00787 32.6 8.33125 32.6C8.65463 32.6 8.97485 32.5364 9.27361 32.4126C9.57237 32.2888 9.84384 32.1075 10.0725 31.8788C10.3012 31.6501 10.4826 31.3787 10.6063 31.0799C10.7301 30.7811 10.7938 30.4609 10.7938 30.1376C10.7938 29.4845 10.5343 28.8581 10.0725 28.3963C9.61069 27.9345 8.98435 27.675 8.33125 27.675C7.67816 27.675 7.05181 27.9345 6.59 28.3963C6.12819 28.8581 5.86875 29.4845 5.86875 30.1376Z" fill="#12DEF4"/>
<path d="M53.2062 30.1376C53.2062 30.4609 53.2699 30.7811 53.3937 31.0799C53.5174 31.3787 53.6988 31.6501 53.9275 31.8788C54.1562 32.1075 54.4276 32.2888 54.7264 32.4126C55.0252 32.5364 55.3454 32.6 55.6688 32.6C55.9921 32.6 56.3123 32.5364 56.6111 32.4126C56.9099 32.2888 57.1813 32.1075 57.41 31.8788C57.6387 31.6501 57.82 31.3787 57.9438 31.0799C58.0676 30.7811 58.1312 30.4609 58.1312 30.1376C58.1312 29.8142 58.0676 29.494 57.9438 29.1952C57.82 28.8964 57.6387 28.625 57.41 28.3963C57.1813 28.1676 56.9099 27.9862 56.6111 27.8625C56.3123 27.7387 55.9921 27.675 55.6688 27.675C55.3454 27.675 55.0252 27.7387 54.7264 27.8625C54.4276 27.9862 54.1562 28.1676 53.9275 28.3963C53.6988 28.625 53.5174 28.8964 53.3937 29.1952C53.2699 29.494 53.2062 29.8142 53.2062 30.1376Z" fill="#12DEF4"/>
<path d="M46.275 13.4063C46.275 14.0594 46.5344 14.6858 46.9963 15.1476C47.4581 15.6094 48.0844 15.8688 48.7375 15.8688C49.3906 15.8688 50.0169 15.6094 50.4788 15.1476C50.9406 14.6858 51.2 14.0594 51.2 13.4063C51.2 12.7533 50.9406 12.1269 50.4788 11.6651C50.0169 11.2033 49.3906 10.9438 48.7375 10.9438C48.0844 10.9438 47.4581 11.2033 46.9963 11.6651C46.5344 12.1269 46.275 12.7533 46.275 13.4063Z" fill="#12DEF4"/>
</svg>
