<svg width="32" height="32" viewBox="0 0 32 32" fill="none" xmlns="http://www.w3.org/2000/svg">
<path d="M2.66675 21.3333C2.66675 17.5621 2.66675 15.6765 3.83832 14.5049C5.00989 13.3333 6.89551 13.3333 10.6667 13.3333H21.3334C25.1046 13.3333 26.9902 13.3333 28.1618 14.5049C29.3334 15.6765 29.3334 17.5621 29.3334 21.3333C29.3334 25.1045 29.3334 26.9901 28.1618 28.1617C26.9902 29.3333 25.1046 29.3333 21.3334 29.3333H10.6667C6.89551 29.3333 5.00989 29.3333 3.83832 28.1617C2.66675 26.9901 2.66675 25.1045 2.66675 21.3333Z" stroke="#12DEF4" stroke-width="2"/>
<path d="M8 13.3334V10.6667C8 6.24847 11.5817 2.66675 16 2.66675C20.4183 2.66675 24 6.24847 24 10.6667V13.3334" stroke="#12DEF4" stroke-width="2" stroke-linecap="round"/>
<path d="M10.6667 21.3333H10.6787M15.9881 21.3333H16.0001M21.3214 21.3333H21.3334" stroke="#12DEF4" stroke-width="2" stroke-linecap="round" stroke-linejoin="round"/>
</svg>
