<svg width="32" height="32" viewBox="0 0 32 32" fill="none" xmlns="http://www.w3.org/2000/svg">
<path d="M16 29.3334C23.3637 29.3334 29.3333 23.3638 29.3333 16.0001C29.3333 8.63628 23.3637 2.66675 16 2.66675C8.63616 2.66675 2.66663 8.63628 2.66663 16.0001C2.66663 18.133 3.16745 20.1489 4.05791 21.9367C4.29455 22.4118 4.37331 22.9549 4.23612 23.4675L3.44197 26.4357C3.09723 27.7241 4.27597 28.9027 5.56443 28.5581L8.53248 27.7639C9.0452 27.6267 9.58824 27.7055 10.0633 27.9421C11.8511 28.8326 13.867 29.3334 16 29.3334Z" stroke="#12DEF4" stroke-width="2"/>
<path opacity="0.5" d="M10.6666 14H21.3333" stroke="#12DEF4" stroke-width="2" stroke-linecap="round"/>
<path opacity="0.5" d="M10.6666 18.6667H18" stroke="#12DEF4" stroke-width="2" stroke-linecap="round"/>
</svg>
