<svg width="32" height="32" viewBox="0 0 32 32" fill="none" xmlns="http://www.w3.org/2000/svg">
<g clip-path="url(#clip0_132_303)">
<path d="M23 9H16C15.7348 9 15.4804 8.89464 15.2929 8.70711C15.1054 8.51957 15 8.26522 15 8C15 7.73478 15.1054 7.48043 15.2929 7.29289C15.4804 7.10536 15.7348 7 16 7H22V3H16C15.7348 3 15.4804 2.89464 15.2929 2.70711C15.1054 2.51957 15 2.26522 15 2C15 1.73478 15.1054 1.48043 15.2929 1.29289C15.4804 1.10536 15.7348 1 16 1H23C23.2652 1 23.5196 1.10536 23.7071 1.29289C23.8946 1.48043 24 1.73478 24 2V8C24 8.26522 23.8946 8.51957 23.7071 8.70711C23.5196 8.89464 23.2652 9 23 9Z" fill="#12DEF4"/>
<path d="M29 12H21C20.7348 12 20.4804 11.8946 20.2929 11.7071C20.1054 11.5196 20 11.2652 20 11V8C20 7.73478 20.1054 7.48043 20.2929 7.29289C20.4804 7.10536 20.7348 7 21 7C21.2652 7 21.5196 7.10536 21.7071 7.29289C21.8946 7.48043 22 7.73478 22 8V10H27.613L27.051 8.316C26.9827 8.11087 26.9827 7.88913 27.051 7.684L27.613 6H23C22.7348 6 22.4804 5.89464 22.2929 5.70711C22.1054 5.51957 22 5.26522 22 5C22 4.73478 22.1054 4.48043 22.2929 4.29289C22.4804 4.10536 22.7348 4 23 4H29C29.1585 3.99996 29.3146 4.03758 29.4557 4.10975C29.5968 4.18192 29.7187 4.28657 29.8113 4.41509C29.904 4.54362 29.9648 4.69232 29.9888 4.84895C30.0127 5.00559 29.9991 5.16567 29.949 5.316L29.054 8L29.954 10.684C30.0042 10.8347 30.0178 10.9953 29.9936 11.1523C29.9694 11.3093 29.9081 11.4583 29.8149 11.5869C29.7216 11.7156 29.5991 11.8201 29.4574 11.892C29.3157 11.9638 29.1589 12.0008 29 12Z" fill="#12DEF4"/>
<path d="M31.0002 31.9999H13.0002C12.7349 31.9999 12.4806 31.8946 12.293 31.707C12.1055 31.5195 12.0002 31.2651 12.0002 30.9999C12.0002 30.7347 12.1055 30.4803 12.293 30.2928C12.4806 30.1053 12.7349 29.9999 13.0002 29.9999H28.9372L16.0002 13.6139L3.06316 29.9999H9.00016C9.26537 29.9999 9.51973 30.1053 9.70726 30.2928C9.8948 30.4803 10.0002 30.7347 10.0002 30.9999C10.0002 31.2651 9.8948 31.5195 9.70726 31.707C9.51973 31.8946 9.26537 31.9999 9.00016 31.9999H1.00015C0.812264 32 0.628154 31.9471 0.468921 31.8474C0.309688 31.7476 0.181776 31.6051 0.0998432 31.436C0.01791 31.2669 -0.0147296 31.0781 0.00566479 30.8914C0.0260592 30.7046 0.0986625 30.5273 0.215155 30.3799L15.2152 11.3799C15.3125 11.2671 15.433 11.1766 15.5685 11.1146C15.7039 11.0526 15.8512 11.0205 16.0002 11.0205C16.1491 11.0205 16.2964 11.0526 16.4318 11.1146C16.5673 11.1766 16.6878 11.2671 16.7852 11.3799L31.7852 30.3799C31.9016 30.5273 31.9743 30.7046 31.9946 30.8914C32.015 31.0781 31.9824 31.2669 31.9005 31.436C31.8185 31.6051 31.6906 31.7476 31.5314 31.8474C31.3722 31.9471 31.188 32 31.0002 31.9999Z" fill="#12DEF4"/>
<path d="M16 13C15.7348 13 15.4804 12.8946 15.2929 12.7071C15.1054 12.5196 15 12.2652 15 12V1C15 0.734784 15.1054 0.48043 15.2929 0.292893C15.4804 0.105357 15.7348 0 16 0C16.2652 0 16.5196 0.105357 16.7071 0.292893C16.8946 0.48043 17 0.734784 17 1V12C17 12.2652 16.8946 12.5196 16.7071 12.7071C16.5196 12.8946 16.2652 13 16 13Z" fill="#12DEF4"/>
<path d="M16 20.4471C14.1208 20.4467 12.2771 19.9355 10.666 18.9681C10.5503 18.9022 10.4489 18.8138 10.3677 18.7082C10.2866 18.6025 10.2274 18.4817 10.1936 18.3529C10.1598 18.224 10.1521 18.0897 10.1709 17.9579C10.1897 17.826 10.2347 17.6992 10.3032 17.585C10.3717 17.4707 10.4623 17.3713 10.5697 17.2926C10.6771 17.2138 10.7992 17.1574 10.9288 17.1264C11.0583 17.0955 11.1928 17.0908 11.3242 17.1125C11.4556 17.1343 11.5813 17.1821 11.694 17.2531C12.9945 18.0343 14.483 18.447 16 18.447C17.5171 18.447 19.0056 18.0343 20.306 17.2531C20.4187 17.1821 20.5445 17.1343 20.6759 17.1125C20.8073 17.0908 20.9417 17.0955 21.0713 17.1264C21.2008 17.1574 21.3229 17.2138 21.4303 17.2926C21.5378 17.3713 21.6284 17.4707 21.6969 17.585C21.7654 17.6992 21.8103 17.826 21.8291 17.9579C21.8479 18.0897 21.8402 18.224 21.8064 18.3529C21.7726 18.4817 21.7134 18.6025 21.6323 18.7082C21.5512 18.8138 21.4498 18.9022 21.334 18.9681C19.723 19.9355 17.8792 20.4467 16 20.4471Z" fill="#12DEF4"/>
</g>
<defs>
<clipPath id="clip0_132_303">
<rect width="32" height="32" fill="white"/>
</clipPath>
</defs>
</svg>
