<svg width="32" height="32" viewBox="0 0 32 32" fill="none" xmlns="http://www.w3.org/2000/svg">
<path d="M4 16H28M16 10.6667V16M8.66667 16V21.3333M23.3333 16V21.3333M13.4667 10.6667H18.5333C19.2801 10.6667 19.6535 10.6667 19.9387 10.5213C20.1896 10.3935 20.3935 10.1895 20.5213 9.93865C20.6667 9.65344 20.6667 9.28007 20.6667 8.53333V6.13333C20.6667 5.3866 20.6667 5.01323 20.5213 4.72801C20.3935 4.47713 20.1896 4.27316 19.9387 4.14532C19.6535 4 19.2801 4 18.5333 4H13.4667C12.7199 4 12.3466 4 12.0613 4.14532C11.8105 4.27316 11.6065 4.47713 11.4787 4.72801C11.3333 5.01323 11.3333 5.3866 11.3333 6.13333V8.53333C11.3333 9.28007 11.3333 9.65344 11.4787 9.93865C11.6065 10.1895 11.8105 10.3935 12.0613 10.5213C12.3466 10.6667 12.7199 10.6667 13.4667 10.6667ZM20.8 28H25.8667C26.6135 28 26.9868 28 27.272 27.8547C27.5229 27.7268 27.7268 27.5229 27.8547 27.272C28 26.9868 28 26.6135 28 25.8667V23.4667C28 22.7199 28 22.3465 27.8547 22.0613C27.7268 21.8104 27.5229 21.6065 27.272 21.4787C26.9868 21.3333 26.6135 21.3333 25.8667 21.3333H20.8C20.0532 21.3333 19.6799 21.3333 19.3947 21.4787C19.1437 21.6065 18.9399 21.8104 18.812 22.0613C18.6667 22.3465 18.6667 22.7199 18.6667 23.4667V25.8667C18.6667 26.6135 18.6667 26.9868 18.812 27.272C18.9399 27.5229 19.1437 27.7268 19.3947 27.8547C19.6799 28 20.0532 28 20.8 28ZM6.13333 28H11.2C11.9467 28 12.3201 28 12.6053 27.8547C12.8562 27.7268 13.0602 27.5229 13.188 27.272C13.3333 26.9868 13.3333 26.6135 13.3333 25.8667V23.4667C13.3333 22.7199 13.3333 22.3465 13.188 22.0613C13.0602 21.8104 12.8562 21.6065 12.6053 21.4787C12.3201 21.3333 11.9467 21.3333 11.2 21.3333H6.13333C5.3866 21.3333 5.01323 21.3333 4.72801 21.4787C4.47713 21.6065 4.27316 21.8104 4.14532 22.0613C4 22.3465 4 22.7199 4 23.4667V25.8667C4 26.6135 4 26.9868 4.14532 27.272C4.27316 27.5229 4.47713 27.7268 4.72801 27.8547C5.01323 28 5.3866 28 6.13333 28Z" stroke="#82018B" stroke-width="2" stroke-linecap="round" stroke-linejoin="round"/>
</svg>
