<svg width="64" height="64" viewBox="0 0 64 64" fill="none" xmlns="http://www.w3.org/2000/svg">
<g clip-path="url(#clip0_247_170)">
<path d="M49.0693 25.996C50.8813 24.084 52 21.508 52 18.6667C52 12.776 47.224 8 41.3333 8C35.4427 8 30.6667 12.776 30.6667 18.6667C30.6667 21.508 31.7853 24.084 33.5973 25.996C32.3147 26.7053 31.1413 27.5853 30.1053 28.6053C28.6867 24.3813 24.7027 21.3333 20 21.3333C14.1093 21.3333 9.33333 26.1093 9.33333 32C9.33333 34.8413 10.452 37.4173 12.264 39.3293C7.33733 42.056 4 47.3013 4 53.3333H36C36 47.764 33.1547 42.8653 28.84 40H57.3333C57.3333 33.968 53.996 28.7227 49.0693 25.996ZM36 18.6667C36 15.7253 38.392 13.3333 41.3333 13.3333C44.2747 13.3333 46.6667 15.7253 46.6667 18.6667C46.6667 21.608 44.2747 24 41.3333 24C38.392 24 36 21.608 36 18.6667ZM14.6667 32C14.6667 29.0587 17.0587 26.6667 20 26.6667C22.9413 26.6667 25.3333 29.0587 25.3333 32C25.3333 34.9413 22.9413 37.3333 20 37.3333C17.0587 37.3333 14.6667 34.9413 14.6667 32ZM10.7653 48C12.612 44.8133 16.06 42.6667 20 42.6667C23.94 42.6667 27.388 44.8133 29.2347 48H10.7653ZM32.0987 34.6667C33.9453 31.48 37.3933 29.3333 41.3333 29.3333C45.2733 29.3333 48.7213 31.48 50.568 34.6667H32.0987Z" fill="#12DEF4"/>
</g>
<defs>
<clipPath id="clip0_247_170">
<rect width="64" height="64" fill="white"/>
</clipPath>
</defs>
</svg>
