<svg width="32" height="32" viewBox="0 0 32 32" fill="none" xmlns="http://www.w3.org/2000/svg">
<g clip-path="url(#clip0_211_132)">
<path d="M24.5347 12.998C25.4407 12.042 26 10.754 26 9.33333C26 6.388 23.612 4 20.6667 4C17.7213 4 15.3333 6.388 15.3333 9.33333C15.3333 10.754 15.8927 12.042 16.7987 12.998C16.1573 13.3527 15.5707 13.7927 15.0527 14.3027C14.3433 12.1907 12.3513 10.6667 10 10.6667C7.05467 10.6667 4.66667 13.0547 4.66667 16C4.66667 17.4207 5.226 18.7087 6.132 19.6647C3.66867 21.028 2 23.6507 2 26.6667H18C18 23.882 16.5773 21.4327 14.42 20H28.6667C28.6667 16.984 26.998 14.3613 24.5347 12.998ZM18 9.33333C18 7.86267 19.196 6.66667 20.6667 6.66667C22.1373 6.66667 23.3333 7.86267 23.3333 9.33333C23.3333 10.804 22.1373 12 20.6667 12C19.196 12 18 10.804 18 9.33333ZM7.33333 16C7.33333 14.5293 8.52933 13.3333 10 13.3333C11.4707 13.3333 12.6667 14.5293 12.6667 16C12.6667 17.4707 11.4707 18.6667 10 18.6667C8.52933 18.6667 7.33333 17.4707 7.33333 16ZM5.38267 24C6.306 22.4067 8.03 21.3333 10 21.3333C11.97 21.3333 13.694 22.4067 14.6173 24H5.38267ZM16.0493 17.3333C16.9727 15.74 18.6967 14.6667 20.6667 14.6667C22.6367 14.6667 24.3607 15.74 25.284 17.3333H16.0493Z" fill="#12DEF4"/>
</g>
<defs>
<clipPath id="clip0_211_132">
<rect width="32" height="32" fill="white"/>
</clipPath>
</defs>
</svg>
