<svg width="64" height="64" viewBox="0 0 64 64" fill="none" xmlns="http://www.w3.org/2000/svg">
<path d="M55.6533 46L48.4267 33.52C49.9054 30.804 50.6758 27.7591 50.6667 24.6667C50.6667 19.716 48.7 14.968 45.1993 11.4673C41.6986 7.96666 36.9507 6 32 6C27.0493 6 22.3013 7.96666 18.8007 11.4673C15.3 14.968 13.3333 19.716 13.3333 24.6667C13.3241 27.7591 14.0945 30.804 15.5733 33.52L8.34666 46C8.11215 46.4062 7.98892 46.867 7.98938 47.336C7.98984 47.805 8.11399 48.2656 8.3493 48.6713C8.5846 49.077 8.92274 49.4134 9.32961 49.6467C9.73647 49.88 10.1977 50.0019 10.6667 50H18.32L22.2133 56.56C22.3446 56.7774 22.5062 56.975 22.6933 57.1467C23.1877 57.6231 23.8467 57.8906 24.5333 57.8933H24.9067C25.3092 57.8382 25.6939 57.6919 26.0313 57.4654C26.3687 57.2389 26.6498 56.9384 26.8533 56.5867L32 47.7333L37.1467 56.6667C37.3531 57.0134 37.6356 57.3088 37.9728 57.5305C38.31 57.7522 38.6931 57.8945 39.0933 57.9467H39.4667C40.1625 57.9508 40.8323 57.6829 41.3333 57.2C41.5127 57.0381 41.6656 56.8491 41.7867 56.64L45.68 50.08H53.3333C53.8032 50.0819 54.2653 49.9595 54.6727 49.7254C55.0801 49.4912 55.4184 49.1536 55.6533 48.7467C55.9025 48.3319 56.0341 47.8572 56.0341 47.3733C56.0341 46.8895 55.9025 46.4147 55.6533 46ZM24.5067 50.08L22.1333 46.1067C21.8996 45.7125 21.5683 45.3851 21.1713 45.1562C20.7742 44.9274 20.3249 44.8047 19.8667 44.8H15.2533L19.0667 38.1867C21.6926 40.717 25.0022 42.4228 28.5867 43.0933L24.5067 50.08ZM32 38C29.3629 38 26.785 37.218 24.5924 35.7529C22.3997 34.2878 20.6908 32.2055 19.6816 29.7691C18.6724 27.3328 18.4084 24.6519 18.9229 22.0655C19.4373 19.479 20.7072 17.1033 22.5719 15.2386C24.4366 13.3739 26.8124 12.104 29.3988 11.5895C31.9852 11.0751 34.6661 11.3391 37.1024 12.3483C39.5388 13.3574 41.6212 15.0664 43.0863 17.2591C44.5513 19.4517 45.3333 22.0296 45.3333 24.6667C45.3333 28.2029 43.9286 31.5943 41.4281 34.0948C38.9276 36.5952 35.5362 38 32 38ZM44.1333 44.8C43.6751 44.8047 43.2258 44.9274 42.8287 45.1562C42.4317 45.3851 42.1004 45.7125 41.8667 46.1067L39.4933 50.08L35.44 43.0133C39.0119 42.3291 42.3092 40.6248 44.9333 38.1067L48.7467 44.72L44.1333 44.8Z" fill="#12DEF4"/>
</svg>
