<svg width="32" height="32" viewBox="0 0 32 32" fill="none" xmlns="http://www.w3.org/2000/svg">
<path d="M15.4919 3.00059C15.9283 3.00059 16.3582 3.02826 16.758 3.09335C17.1518 3.14375 17.5403 3.2276 17.9192 3.34395C18.299 3.45624 18.6705 3.59619 19.042 3.77193C19.4036 3.93955 19.7751 4.14459 20.1466 4.36753C20.7747 4.75808 21.3927 5.07378 22.0225 5.32601C23.2622 5.81067 24.5731 6.09907 25.9059 6.18034C26.5823 6.22753 27.277 6.2552 28 6.2552V12.7644C28 14.0012 27.8384 15.1728 27.5152 16.2891C27.2047 17.3895 26.7636 18.4507 26.2007 19.451C25.6403 20.4499 24.9771 21.3904 24.2216 22.2581C23.4544 23.1455 22.6238 23.9786 21.7359 24.7511C20.8363 25.5259 19.8888 26.246 18.8988 26.9073C17.9092 27.5777 16.9096 28.201 15.91 28.7673L15.5102 29L15.1103 28.7673C14.0828 28.1862 13.0791 27.5657 12.1016 26.9073C11.106 26.2535 10.158 25.533 9.26444 24.7511C8.37712 23.9785 7.54705 23.1454 6.78047 22.2581C6.02694 21.3867 5.36082 20.4467 4.79129 19.451C4.23808 18.4462 3.79738 17.3862 3.47684 16.2891C3.15159 15.1415 2.99123 13.9552 3.00037 12.7644V6.2552C3.72507 6.2552 4.41978 6.22753 5.09617 6.18034C5.76199 6.13517 6.42351 6.04216 7.07535 5.90207C7.71341 5.76212 8.35148 5.57661 8.97956 5.32601C9.63129 5.06908 10.2561 4.75137 10.8454 4.37729C11.5785 3.91188 12.3215 3.56852 13.0545 3.34233C13.844 3.10593 14.6662 2.99065 15.4919 3.00059ZM26.324 7.85484C25.0629 7.79507 23.8136 7.58912 22.6022 7.24134C21.3973 6.89026 20.2496 6.37357 19.1937 5.7068C18.6459 5.35562 18.0511 5.08016 17.4261 4.88826C16.8017 4.70395 16.1524 4.61287 15.5002 4.61813C14.8431 4.61398 14.1891 4.70501 13.5593 4.88826C12.9334 5.07392 12.3393 5.34981 11.7967 5.7068C10.7389 6.37721 9.58826 6.89616 8.37981 7.24785C7.19863 7.58308 5.96247 7.78812 4.66635 7.86297V12.7725C4.66635 13.8514 4.80962 14.8832 5.09617 15.8774C5.38809 16.8631 5.79035 17.8143 6.29567 18.7138C6.80704 19.6227 7.40976 20.4797 8.09492 21.2719C8.78964 22.0709 9.53099 22.8146 10.3307 23.5209C11.1303 24.2287 11.9683 24.8797 12.8446 25.4834C13.7293 26.0888 14.6156 26.6372 15.5002 27.1384C16.406 26.6233 17.2892 26.0711 18.1474 25.4834C19.0295 24.8816 19.8719 24.2261 20.6697 23.5209C21.4694 22.8146 22.2124 22.0709 22.9071 21.2719C23.5923 20.4797 24.1951 19.6228 24.7064 18.7138C25.2094 17.8154 25.6057 16.8638 25.8875 15.8774C26.1828 14.8679 26.3298 13.8225 26.324 12.7725V7.85484Z" fill="#12DEF4"/>
<path fill-rule="evenodd" clip-rule="evenodd" d="M23.246 9.756L22.366 9L21.554 9.07L12.834 19.366L9.864 15.126L9.064 14.99L8.138 15.652L8 16.452L11.818 21.904L12.252 22.144L13.166 22.2L13.634 21.996L23.304 10.566L23.246 9.756Z" fill="#12DEF4"/>
</svg>
