<svg width="32" height="32" viewBox="0 0 32 32" fill="none" xmlns="http://www.w3.org/2000/svg">
<path fill-rule="evenodd" clip-rule="evenodd" d="M16 11C13.2386 11 11 13.2386 11 16C11 18.7615 13.2386 21 16 21C18.7615 21 21 18.7615 21 16C21 13.2386 18.7615 11 16 11ZM13 16C13 14.3432 14.3432 13 16 13C17.6568 13 19 14.3432 19 16C19 17.6568 17.6568 19 16 19C14.3432 19 13 17.6568 13 16Z" fill="#82018B"/>
<path fill-rule="evenodd" clip-rule="evenodd" d="M15.9662 1.66675C15.3737 1.66674 14.8789 1.66674 14.4728 1.69444C14.05 1.7233 13.6506 1.78548 13.2635 1.94586C12.365 2.318 11.6512 3.0318 11.2791 3.93024C11.0853 4.39797 11.0329 4.89091 11.0128 5.4267C10.9967 5.8574 10.7794 6.21676 10.4586 6.40196C10.1378 6.58716 9.71791 6.59572 9.33686 6.39432C8.86283 6.14377 8.4097 5.94274 7.90775 5.87666C6.94362 5.74972 5.96854 6.011 5.19703 6.603C4.86455 6.85812 4.61101 7.17288 4.37463 7.52462C4.14755 7.8625 3.90021 8.29095 3.6039 8.80417L3.57023 8.86249C3.27391 9.37571 3.02655 9.80414 2.84747 10.1697C2.66106 10.5503 2.51523 10.9273 2.46053 11.3428C2.33359 12.3069 2.59487 13.282 3.18686 14.0535C3.49502 14.455 3.89562 14.747 4.34954 15.0322C4.71458 15.2615 4.91715 15.6295 4.91713 16.0001C4.91711 16.3705 4.71454 16.7385 4.34954 16.9678C3.89557 17.253 3.49493 17.545 3.18674 17.9466C2.59474 18.7181 2.33347 19.6931 2.46039 20.6573C2.5151 21.0727 2.66093 21.4498 2.84734 21.8303C3.02642 22.1959 3.27378 22.6243 3.57009 23.1375L3.60377 23.1959C3.90007 23.7091 4.14742 24.1375 4.3745 24.4754C4.61087 24.8271 4.86442 25.1419 5.1969 25.397C5.96841 25.989 6.94349 26.2503 7.90762 26.1234C8.40954 26.0573 8.86265 25.8563 9.33665 25.6058C9.71775 25.4043 10.1377 25.4129 10.4585 25.5982C10.7793 25.7834 10.9967 26.1427 11.0128 26.5735C11.0329 27.1093 11.0854 27.6022 11.2791 28.0699C11.6512 28.9683 12.365 29.6822 13.2635 30.0543C13.6506 30.2147 14.05 30.2769 14.4728 30.3057C14.8789 30.3334 15.3737 30.3334 15.9662 30.3334H16.0336C16.6262 30.3334 17.1209 30.3334 17.5272 30.3057C17.95 30.2769 18.3493 30.2147 18.7365 30.0543C19.6349 29.6822 20.3488 28.9683 20.7209 28.0699C20.9146 27.6022 20.967 27.1093 20.987 26.5734C21.0032 26.1427 21.2205 25.7834 21.5413 25.5981C21.8621 25.4129 22.2821 25.4043 22.6632 25.6057C23.1372 25.8562 23.5902 26.0573 24.0922 26.1233C25.0564 26.2502 26.0314 25.989 26.8029 25.397C27.1354 25.1418 27.3889 24.8271 27.6253 24.4754C27.8524 24.1375 28.0997 23.7091 28.396 23.1959L28.4297 23.1375C28.726 22.6243 28.9734 22.1958 29.1525 21.8302C29.3389 21.4497 29.4846 21.0727 29.5394 20.6573C29.6664 19.693 29.405 18.7179 28.813 17.9465C28.5049 17.5449 28.1042 17.253 27.6504 16.9678C27.2853 16.7385 27.0828 16.3705 27.0828 15.9999C27.0828 15.6295 27.2853 15.2617 27.6502 15.0323C28.1044 14.7471 28.505 14.4553 28.8132 14.0535C29.4052 13.2821 29.6665 12.307 29.5396 11.3429C29.4848 10.9274 29.339 10.5504 29.1526 10.1698C28.9736 9.80425 28.7262 9.37585 28.4298 8.86268L28.3962 8.80432C28.0998 8.29108 27.8525 7.86259 27.6254 7.52471C27.389 7.17297 27.1356 6.85821 26.803 6.60308C26.0316 6.0111 25.0565 5.74981 24.0922 5.87675C23.5904 5.94283 23.1373 6.14384 22.6633 6.39438C22.2822 6.5958 21.8622 6.58723 21.5414 6.402C21.2206 6.21679 21.0032 5.85738 20.987 5.42663C20.967 4.89086 20.9146 4.39795 20.7209 3.93024C20.3488 3.0318 19.6349 2.318 18.7365 1.94586C18.3493 1.78548 17.95 1.7233 17.5272 1.69444C17.1209 1.66674 16.6262 1.66674 16.0336 1.66675H15.9662ZM14.0288 3.79362C14.1317 3.751 14.288 3.71171 14.6089 3.6898C14.9389 3.6673 15.365 3.66675 16 3.66675C16.6349 3.66675 17.061 3.6673 17.3909 3.6898C17.712 3.71171 17.8682 3.751 17.971 3.79362C18.3794 3.96278 18.704 4.28723 18.873 4.69562C18.9265 4.82443 18.9706 5.02524 18.9885 5.50137C19.028 6.55788 19.5733 7.57514 20.5414 8.13406C21.5094 8.69299 22.6632 8.65661 23.5978 8.16259C24.019 7.93995 24.2152 7.87784 24.3533 7.85964C24.7916 7.80195 25.2348 7.92071 25.5854 8.18979C25.6738 8.25758 25.786 8.37327 25.9654 8.6403C26.15 8.91479 26.3634 9.28355 26.6809 9.83342C26.9984 10.3833 27.211 10.7526 27.3565 11.0496C27.498 11.3385 27.5421 11.4935 27.5566 11.6039C27.6144 12.0421 27.4956 12.4854 27.2265 12.8361C27.1416 12.9467 26.9898 13.0854 26.5862 13.3389C25.6912 13.9014 25.0829 14.8822 25.0828 15.9999C25.0828 17.1178 25.691 18.0987 26.5862 18.6613C26.9897 18.9147 27.1414 19.0534 27.2264 19.1641C27.4954 19.5147 27.6142 19.9579 27.5565 20.3962C27.542 20.5066 27.4978 20.6615 27.3564 20.9505C27.2109 21.2474 26.9982 21.6167 26.6808 22.1666C26.3633 22.7165 26.1498 23.0853 25.9653 23.3598C25.7858 23.6267 25.6737 23.7425 25.5853 23.8102C25.2346 24.0794 24.7914 24.1981 24.3532 24.1405C24.215 24.1222 24.0189 24.0601 23.5977 23.8375C22.663 23.3434 21.5093 23.3071 20.5412 23.8661C19.5733 24.425 19.028 25.4422 18.9885 26.4987C18.9706 26.9749 18.9265 27.1757 18.873 27.3046C18.704 27.7129 18.3794 28.0374 17.971 28.2066C17.8682 28.2491 17.712 28.2885 17.3909 28.3103C17.061 28.3329 16.6349 28.3334 16 28.3334C15.365 28.3334 14.9389 28.3329 14.6089 28.3103C14.288 28.2885 14.1317 28.2491 14.0288 28.2066C13.6205 28.0374 13.296 27.7129 13.1268 27.3046C13.0735 27.1757 13.0292 26.9749 13.0114 26.4987C12.9719 25.4423 12.4266 24.425 11.4585 23.8661C10.4904 23.3071 9.33681 23.3435 8.40209 23.8375C7.98085 24.0602 7.78482 24.1223 7.64658 24.1405C7.20833 24.1982 6.76511 24.0794 6.41443 23.8103C6.32609 23.7426 6.21391 23.6269 6.03446 23.3598C5.84999 23.0854 5.63646 22.7166 5.31899 22.1667C5.00151 21.6169 4.78893 21.2475 4.64345 20.9506C4.50193 20.6617 4.45782 20.5066 4.44329 20.3962C4.38559 19.9579 4.50435 19.5147 4.77345 19.1641C4.85833 19.0535 5.01013 18.9147 5.41358 18.6613C6.30875 18.0989 6.91707 17.1179 6.91713 16.0002C6.91719 14.8822 6.30885 13.9013 5.41359 13.3387C5.01024 13.0853 4.85845 12.9466 4.77357 12.836C4.50449 12.4853 4.38573 12.0421 4.44342 11.6038C4.45795 11.4934 4.50206 11.3384 4.64358 11.0495C4.78906 10.7525 5.00165 10.3832 5.31911 9.83332C5.63659 9.28345 5.85011 8.9147 6.03459 8.6402C6.21405 8.37319 6.32622 8.25748 6.41455 8.18971C6.76525 7.92062 7.20846 7.80186 7.6467 7.85955C7.78496 7.87775 7.98099 7.93986 8.40229 8.16254C9.33695 8.65655 10.4905 8.69291 11.4586 8.13402C12.4266 7.57512 12.9719 6.55791 13.0114 5.50144C13.0292 5.02527 13.0735 4.82444 13.1268 4.69562C13.296 4.28723 13.6205 3.96278 14.0288 3.79362Z" fill="#82018B"/>
</svg>
