<svg width="32" height="32" viewBox="0 0 32 32" fill="none" xmlns="http://www.w3.org/2000/svg">
<path d="M26.1201 0.993188C25.5091 0.380438 24.6567 -0.000437123 23.7228 3.76503e-07H19.7709L19.6558 0.568375C19.6341 0.674375 19.5757 0.7695 19.4928 0.837813C19.4095 0.906188 19.3093 0.945625 19.1925 0.946063C19.0753 0.945625 18.9747 0.906188 18.8914 0.837813C18.8089 0.769438 18.7501 0.674313 18.7293 0.568375L18.6133 3.76503e-07H13.3868L13.2713 0.568375C13.25 0.674375 13.1915 0.7695 13.1087 0.837813C13.0253 0.906188 12.9248 0.945625 12.808 0.946063C12.6907 0.945625 12.5905 0.906188 12.5072 0.837813C12.4243 0.769438 12.3659 0.674313 12.3447 0.568375L12.2292 3.76503e-07H8.27722C7.34334 -0.000437123 6.49097 0.380438 5.88003 0.993188C5.26728 1.60419 4.88634 2.45656 4.88678 3.39038V24.8206C4.88678 25.7196 5.24416 26.5819 5.88003 27.2178L9.66897 31.0068C10.3048 31.6427 11.1672 32 12.0662 32H23.7228C24.6567 32.0005 25.5091 31.6196 26.1201 31.0068C26.7328 30.3958 27.1137 29.5435 27.1133 28.6096V3.39038C27.1137 2.45656 26.7328 1.60419 26.1201 0.993188ZM25.6948 28.6096C25.6943 29.1562 25.4752 29.6444 25.1173 30.0041C24.7582 30.3619 24.27 30.5811 23.7228 30.5815H12.0662C11.5435 30.5815 11.0417 30.3736 10.6717 30.0041L6.88272 26.2151C6.51315 25.8451 6.30528 25.3433 6.30528 24.8206V3.39038C6.30572 2.84375 6.5249 2.35506 6.88272 1.99594C7.24234 1.63813 7.73053 1.41894 8.27722 1.4185H11.1712C11.284 1.61463 11.4303 1.7885 11.6032 1.93119C11.9289 2.20156 12.3528 2.36506 12.808 2.36456C13.2631 2.365 13.6875 2.20156 14.0127 1.93119C14.1852 1.7885 14.3315 1.61456 14.4448 1.4185H17.5553C17.6685 1.61463 17.8148 1.7885 17.9874 1.93119C18.313 2.20156 18.737 2.36506 19.1925 2.36456C19.6473 2.365 20.0712 2.20156 20.3968 1.93119C20.5698 1.7885 20.716 1.61456 20.8288 1.4185H23.7228C24.27 1.419 24.7582 1.63813 25.1173 1.99594C25.4752 2.35506 25.6943 2.84375 25.6948 3.39038V28.6096Z" fill="#82018B"/>
<path d="M11.7595 15.7166L11.4869 15.679C10.8968 15.5956 10.6852 15.4063 10.6852 15.111C10.6852 14.7858 10.9194 14.5513 11.3732 14.5513C11.7971 14.5513 12.1757 14.6876 12.5693 14.9448C12.607 14.968 12.6446 14.9598 12.6749 14.9222L13.1368 14.2333C13.1744 14.1808 13.1667 14.15 13.1218 14.1201C12.6903 13.7873 12.0548 13.5825 11.3732 13.5825C10.2609 13.5825 9.54983 14.2107 9.54983 15.1568C9.54983 16.0648 10.1327 16.5562 11.1766 16.7003L11.4493 16.7383C12.0625 16.8216 12.2436 17.0109 12.2436 17.3135C12.2436 17.6767 11.9411 17.9262 11.4035 17.9262C10.8591 17.9262 10.3971 17.669 10.057 17.3968C10.019 17.3665 9.97377 17.3665 9.94296 17.404L9.36821 18.0626C9.33058 18.1078 9.34558 18.1608 9.3759 18.1912C9.77671 18.5771 10.5561 18.895 11.3582 18.895C12.6902 18.895 13.379 18.2066 13.379 17.2755C13.3791 16.3448 12.8188 15.8606 11.7595 15.7166Z" fill="#82018B"/>
<path d="M15.6183 13.6658H14.6572C14.6119 13.6658 14.5816 13.6961 14.5816 13.7414V18.736C14.5816 18.7813 14.6119 18.8116 14.6572 18.8116H15.6183C15.6635 18.8116 15.6939 18.7813 15.6939 18.736V13.7414C15.6939 13.6961 15.6635 13.6658 15.6183 13.6658Z" fill="#82018B"/>
<path d="M21.8456 13.6658H20.9602C20.8999 13.6658 20.8619 13.6888 20.8393 13.7414L19.5603 16.6775H19.5299L18.2288 13.7414C18.2061 13.6888 18.1681 13.6658 18.1073 13.6658H17.207C17.1617 13.6658 17.1313 13.6961 17.1313 13.7414V18.736C17.1313 18.7813 17.1617 18.8116 17.207 18.8116H18.0625C18.1073 18.8116 18.1382 18.7813 18.1382 18.736V15.8374H18.168L19.1218 18.0095C19.1517 18.0775 19.1974 18.1078 19.2653 18.1078H19.7875C19.8555 18.1078 19.9008 18.0775 19.9312 18.0095L20.8849 15.8374H20.9148V18.736C20.9148 18.7813 20.9452 18.8116 20.9904 18.8116H21.8455C21.8908 18.8116 21.9217 18.7813 21.9217 18.736V13.7414C21.9217 13.6961 21.8909 13.6658 21.8456 13.6658Z" fill="#82018B"/>
</svg>
