<svg width="32" height="32" viewBox="0 0 32 32" fill="none" xmlns="http://www.w3.org/2000/svg">
<path fill-rule="evenodd" clip-rule="evenodd" d="M26.4001 13.5734C25.9868 9.33341 23.4801 2.66675 15.7335 2.66675C7.98681 2.66675 5.48014 9.33341 5.06681 13.5734C3.61683 14.1237 2.6604 15.5159 2.66678 17.0667V18.9334C2.66678 20.9953 4.33828 22.6667 6.40015 22.6667C8.46201 22.6667 10.1335 20.9953 10.1335 18.9334V17.0667C10.1268 15.5493 9.20547 14.1858 7.80014 13.6134C8.06681 11.1601 9.37348 5.33341 15.7335 5.33341C22.0935 5.33341 23.3868 11.1601 23.6535 13.6134C22.251 14.187 21.3343 15.5515 21.3335 17.0667V18.9334C21.3393 20.3667 22.1623 21.6711 23.4535 22.2934C22.8935 23.3467 21.4668 24.7734 17.9601 25.2001C17.2592 24.1357 15.903 23.7161 14.7234 24.1986C13.5438 24.6811 12.8705 25.9309 13.1165 27.1814C13.3625 28.432 14.459 29.3334 15.7335 29.3334C16.7406 29.3278 17.6587 28.7553 18.1068 27.8534C23.8268 27.2001 25.6535 24.2534 26.2268 22.5201C27.7779 22.0176 28.8211 20.5637 28.8001 18.9334V17.0667C28.8066 15.5159 27.8501 14.1237 26.4001 13.5734ZM7.46681 18.9334C7.46681 19.5225 6.98925 20.0001 6.40015 20.0001C5.81104 20.0001 5.33348 19.5225 5.33348 18.9334V17.0667C5.33348 16.6857 5.53678 16.3335 5.86681 16.143C6.19684 15.9524 6.60345 15.9524 6.93348 16.143C7.26351 16.3335 7.46681 16.6857 7.46681 17.0667V18.9334ZM24.0001 17.0667C24.0001 16.4776 24.4777 16.0001 25.0668 16.0001C25.6559 16.0001 26.1335 16.4776 26.1335 17.0667V18.9334C26.1335 19.5225 25.6559 20.0001 25.0668 20.0001C24.4777 20.0001 24.0001 19.5225 24.0001 18.9334V17.0667Z" fill="#12DEF4"/>
</svg>
