<svg width="64" height="64" viewBox="0 0 64 64" fill="none" xmlns="http://www.w3.org/2000/svg">
<mask id="mask0_247_154" style="mask-type:luminance" maskUnits="userSpaceOnUse" x="0" y="13" width="64" height="38">
<path d="M63.9162 13.3647H0.292664V50.6353H63.9162V13.3647Z" fill="white"/>
</mask>
<g mask="url(#mask0_247_154)">
<path d="M60.0561 13.5128C58.8796 13.4114 57.9983 13.6474 57.3628 14.2314C56.535 14.9918 56.1348 16.3219 56.1058 18.4124C55.421 19.1932 54.7384 19.9698 54.0585 20.7423C52.4875 22.5281 50.8634 24.3745 49.2868 26.1962C47.7101 28.0179 46.1195 29.8848 44.5813 31.69C43.9209 32.4644 43.2602 33.2396 42.5984 34.0155C42.4196 34.0116 42.2332 33.9985 42.0378 33.985C41.46 33.9088 40.8734 33.9387 40.3064 34.0731C39.552 34.302 39.1036 34.0881 38.4403 33.5552C34.7891 30.6251 31.3957 28.3484 28.0659 26.5957C27.8044 26.4755 27.5742 26.2962 27.3929 26.0714C27.2119 25.8468 27.0847 25.5829 27.0215 25.3004C26.7574 24.2845 26.1082 23.4136 25.2134 22.8754C24.3188 22.3372 23.2502 22.1747 22.2378 22.4229C21.2084 22.6652 20.3077 23.2901 19.7155 24.1727C19.1232 25.0554 18.8832 26.1308 19.0432 27.1841C19.0845 27.4624 19.1345 27.7408 19.1825 28.0057L19.2211 28.2235L5.84986 41.1848C5.78191 41.1783 5.71418 41.1708 5.64672 41.1637C5.42388 41.1396 5.19326 41.1154 4.96207 41.1093C2.75061 41.0451 1.39121 42.0202 0.681272 44.179C0.148754 45.7981 0.731686 47.2432 1.21667 48.1895C1.54525 48.8693 2.04566 49.4502 2.66763 49.873C3.28961 50.296 4.01114 50.5465 4.75964 50.599C4.83501 50.6031 4.91019 50.6051 4.9853 50.6053C5.70578 50.5944 6.41231 50.4027 7.04105 50.048C7.66976 49.6929 8.20088 49.1859 8.58661 48.5724C9.73903 46.8265 9.91815 45.1902 9.13069 43.5762L22.1053 31.1181L25.7197 29.9927L36.4421 37.4073C36.5266 39.002 36.9206 40.1979 37.7122 41.27C38.173 41.9285 38.842 42.4102 39.6096 42.6362C40.3772 42.862 41.1979 42.8187 41.9381 42.5135C44.0776 41.694 45.2657 39.8782 45.2096 37.5228L58.2223 21.2316C60.0681 21.5947 61.501 21.4253 62.4824 20.7259C63.2414 20.1859 63.7033 19.3488 63.8551 18.2377C63.942 17.6774 63.9142 17.105 63.773 16.556C63.6318 16.0071 63.3803 15.4932 63.034 15.0462C62.6681 14.5989 62.2152 14.232 61.7028 13.9682C61.1908 13.7044 60.6302 13.5494 60.0561 13.5128Z" fill="#12DEF4"/>
</g>
</svg>
