<svg width="32" height="32" viewBox="0 0 32 32" fill="none" xmlns="http://www.w3.org/2000/svg">
<path d="M25.94 25.061L20.558 16.001L25.94 6.93703L28.538 15.999L25.939 25.059L25.94 25.061ZM13.946 24.191L7.178 17.474H17.937L23.317 26.535L13.945 24.193L13.946 24.191ZM13.946 7.80903L23.317 5.46703L17.938 14.528H7.177L13.946 7.80903ZM30.996 12.917L27.714 1.00403L15.463 4.19703L13.651 7.30903L9.971 7.28203L1.005 16.001L9.972 24.721L13.65 24.692L15.467 27.804L27.713 30.996L30.996 19.088L29.132 16.001L30.996 12.917Z" fill="#12DEF4"/>
</svg>
