<svg width="32" height="32" viewBox="0 0 32 32" fill="none" xmlns="http://www.w3.org/2000/svg">
<g clip-path="url(#clip0_132_316)">
<path d="M27 31.9999H12C11.7348 31.9999 11.4804 31.8946 11.2929 31.707C11.1053 31.5195 11 31.2651 11 30.9999V27.9999H8.99998C8.20433 27.9999 7.44127 27.6839 6.87866 27.1212C6.31605 26.5586 5.99998 25.7956 5.99998 24.9999V21.6179L2.55298 19.8999C2.42601 19.8365 2.31399 19.7469 2.22436 19.6368C2.13473 19.5268 2.06954 19.399 2.03312 19.2618C1.99671 19.1247 1.9899 18.9814 2.01315 18.8414C2.0364 18.7014 2.08918 18.5679 2.16798 18.4499L5.99998 12.6909C6.06232 9.96601 6.9799 7.32967 8.62288 5.1549C10.2659 2.98012 12.5511 1.377 15.1552 0.57235C17.7594 -0.232303 20.5506 -0.197756 23.1341 0.671104C25.7175 1.53996 27.9623 3.19915 29.551 5.41393C29.6279 5.52036 29.6832 5.64091 29.7135 5.7687C29.7439 5.89648 29.7488 6.02899 29.728 6.15867C29.7071 6.28835 29.6609 6.41265 29.592 6.52448C29.5232 6.63631 29.4329 6.73347 29.3265 6.81043C29.22 6.88738 29.0995 6.94262 28.9717 6.97298C28.8439 7.00335 28.7114 7.00825 28.5817 6.9874C28.4521 6.96655 28.3278 6.92037 28.2159 6.85148C28.1041 6.7826 28.0069 6.69236 27.93 6.58593C26.5714 4.69707 24.6489 3.28765 22.4388 2.56027C20.2287 1.8329 17.8449 1.82504 15.6301 2.53783C13.4153 3.25062 11.4835 4.64734 10.1125 6.5272C8.7415 8.40706 8.00189 10.6732 7.99998 12.9999C7.99967 13.1974 7.94124 13.3904 7.83198 13.5549L4.45998 18.6119L7.44698 20.1049C7.61321 20.188 7.75301 20.3157 7.85069 20.4738C7.94837 20.6319 8.00007 20.8141 7.99998 20.9999V24.9999C7.99998 25.2651 8.10534 25.5195 8.29287 25.707C8.48041 25.8946 8.73476 25.9999 8.99998 25.9999H12C12.2652 25.9999 12.5196 26.1053 12.7071 26.2928C12.8946 26.4804 13 26.7347 13 26.9999V29.9999H26V27.9659C25.9586 24.6968 26.8036 21.4774 28.445 18.6499C29.6637 16.6114 30.1899 14.2333 29.945 11.8709C29.8922 11.3242 29.7962 10.7825 29.658 10.2509C29.5981 9.99643 29.6404 9.72861 29.7756 9.50486C29.9108 9.2811 30.1282 9.11919 30.3814 9.05382C30.6345 8.98844 30.9032 9.0248 31.1298 9.1551C31.3565 9.2854 31.5231 9.49928 31.594 9.75093C31.7576 10.3835 31.8719 11.0277 31.936 11.6779C32.2245 14.4663 31.6017 17.2732 30.161 19.6779C28.7055 22.1948 27.9588 25.0588 28 27.9659V30.9999C28 31.2651 27.8946 31.5195 27.7071 31.707C27.5196 31.8946 27.2652 31.9999 27 31.9999Z" fill="#12DEF4"/>
<path d="M14 28H12C11.7348 28 11.4804 27.8946 11.2929 27.7071C11.1054 27.5196 11 27.2652 11 27C11 26.7348 11.1054 26.4804 11.2929 26.2929C11.4804 26.1054 11.7348 26 12 26H14C14.2652 26 14.5196 26.1054 14.7071 26.2929C14.8946 26.4804 15 26.7348 15 27C15 27.2652 14.8946 27.5196 14.7071 27.7071C14.5196 27.8946 14.2652 28 14 28Z" fill="#12DEF4"/>
<path d="M20.072 19H17.928C17.4365 19.0002 16.9635 18.813 16.6052 18.4765C16.247 18.14 16.0306 17.6795 16 17.189C15.5608 17.4081 15.0546 17.4513 14.5847 17.3099C14.1147 17.1685 13.7164 16.853 13.471 16.428L12.4 14.572C12.1558 14.1463 12.0826 13.6437 12.1954 13.1661C12.3081 12.6884 12.5983 12.2716 13.007 12C12.5983 11.7284 12.3081 11.3116 12.1954 10.8339C12.0826 10.3563 12.1558 9.85367 12.4 9.428L13.472 7.572C13.7174 7.14721 14.1155 6.83198 14.5852 6.69058C15.055 6.54917 15.5609 6.59224 16 6.811C16.0306 6.32047 16.247 5.86003 16.6052 5.52354C16.9635 5.18705 17.4365 4.99982 17.928 5H20.072C20.5637 4.99934 21.037 5.18641 21.3953 5.523C21.7537 5.85959 21.97 6.3203 22 6.811C22.4394 6.59173 22.946 6.54848 23.4162 6.69011C23.8864 6.83173 24.2848 7.14753 24.53 7.573L25.6 9.428C25.8442 9.85367 25.9174 10.3563 25.8047 10.8339C25.692 11.3116 25.4018 11.7284 24.993 12C25.4014 12.2717 25.6911 12.6885 25.8037 13.1658C25.9162 13.6432 25.843 14.1455 25.599 14.571L24.526 16.428C24.2805 16.8531 23.882 17.1686 23.4119 17.31C22.9417 17.4514 22.4354 17.4081 21.996 17.189C21.966 17.679 21.7503 18.1391 21.3928 18.4756C21.0353 18.8121 20.563 18.9997 20.072 19ZM18 17H20C20.0122 16.6739 20.1069 16.3563 20.2752 16.0768C20.4436 15.7972 20.6801 15.565 20.9626 15.4018C21.2452 15.2385 21.5645 15.1496 21.8907 15.1434C22.217 15.1371 22.5394 15.2137 22.828 15.366L23.828 13.633C23.5516 13.4595 23.3237 13.2187 23.1658 12.933C23.0078 12.6474 22.925 12.3264 22.925 12C22.925 11.6736 23.0078 11.3526 23.1658 11.067C23.3237 10.7814 23.5516 10.5405 23.828 10.367L22.828 8.634C22.5394 8.7863 22.217 8.86291 21.8907 8.85665C21.5645 8.8504 21.2452 8.76149 20.9626 8.59825C20.6801 8.43501 20.4436 8.20276 20.2752 7.92324C20.1069 7.64373 20.0122 7.32607 20 7H18C17.9877 7.32599 17.8929 7.64352 17.7245 7.9229C17.556 8.20229 17.3195 8.4344 17.037 8.59752C16.7545 8.76065 16.4353 8.84947 16.1091 8.85568C15.7829 8.86188 15.4605 8.78527 15.172 8.633L14.172 10.367C14.4485 10.5405 14.6763 10.7814 14.8343 11.067C14.9922 11.3526 15.0751 11.6736 15.0751 12C15.0751 12.3264 14.9922 12.6474 14.8343 12.933C14.6763 13.2187 14.4485 13.4595 14.172 13.633L15.172 15.367C15.4605 15.2147 15.7829 15.1381 16.1091 15.1443C16.4353 15.1505 16.7545 15.2394 17.037 15.4025C17.3195 15.5656 17.556 15.7977 17.7245 16.0771C17.8929 16.3565 17.9877 16.674 18 17Z" fill="#12DEF4"/>
<path d="M19 14C18.6044 14 18.2178 13.8827 17.8889 13.6629C17.56 13.4432 17.3036 13.1308 17.1522 12.7654C17.0009 12.3999 16.9613 11.9978 17.0384 11.6098C17.1156 11.2219 17.3061 10.8655 17.5858 10.5858C17.8655 10.3061 18.2219 10.1156 18.6098 10.0384C18.9978 9.96126 19.3999 10.0009 19.7654 10.1522C20.1308 10.3036 20.4432 10.56 20.6629 10.8889C20.8827 11.2178 21 11.6044 21 12C21 12.5304 20.7893 13.0391 20.4142 13.4142C20.0391 13.7893 19.5304 14 19 14Z" fill="#12DEF4"/>
</g>
<defs>
<clipPath id="clip0_132_316">
<rect width="32" height="32" fill="white"/>
</clipPath>
</defs>
</svg>
